# xmcd
#
# Track frame offsets:
#	150
#	22940
#	60319
#	77719
#	101187
#	135043
#	161628
#	212665
#	231449
#	252451
#	294324
#	315363
#
# Disc length: 4729 seconds
# Revision: 0
# Processed by: cddbd v1.5.2PL0 Copyright (c) Steve Scherf et al.
# Submitted via: dBpowerAMP V12.0
#
DISCID=9712770c
DTITLE=Mike Elrington - Live At The Flying Saucer
DYEAR=2017
DGENRE=Blues
TTITLE0=Still In Love With You
TTITLE1=Better Days
TTITLE2=Jennifer
TTITLE3=The Only Way We Are
TTITLE4=Good Morning Little Schoolgirl
TTITLE5=Anywhere But Here
TTITLE6=Where Did You Sleep Last Night/Spoonful
TTITLE7=Two Lucky Stars
TTITLE8=Hurt
TTITLE9=I Got A Woman/Voodoo Child(Slight Return)
TTITLE10=Build You Up(To Cut You Down)
TTITLE11=Heroes
EXTD=
EXTT0=
EXTT1=
EXTT2=
EXTT3=
EXTT4=
EXTT5=
EXTT6=
EXTT7=
EXTT8=
EXTT9=
EXTT10=
EXTT11=
PLAYORDER=
